<svg width="18" height="18" viewBox="0 0 18 18" fill="none" xmlns="http://www.w3.org/2000/svg">
<path d="M16.9705 3.68874C16.7007 2.9669 16.3116 2.31277 15.8251 1.76298C15.3382 1.21154 14.7641 0.773325 14.1341 0.472155C13.4808 0.15862 12.7801 -0.0018648 12.0726 1.63478e-05C11.0802 1.63478e-05 10.1119 0.314 9.27039 0.90708C9.06907 1.04895 8.87783 1.20478 8.69665 1.37457C8.51547 1.20478 8.32422 1.04895 8.12291 0.90708C7.28143 0.314 6.31312 1.63478e-05 5.32066 1.63478e-05C4.606 1.63478e-05 3.91349 0.158171 3.25923 0.472155C2.62711 0.774509 2.0574 1.20943 1.56821 1.76298C1.08103 2.31215 0.691862 2.96643 0.422754 3.68874C0.142931 4.43998 0 5.23773 0 6.05874C0 6.83323 0.136892 7.64028 0.408662 8.46129C0.636144 9.14741 0.962268 9.8591 1.37898 10.5778C2.03928 11.7151 2.9472 12.9013 4.07454 14.1037C5.94271 16.0969 7.79276 17.4738 7.87127 17.5296L8.34838 17.8831C8.55976 18.039 8.83153 18.039 9.0429 17.8831L9.52001 17.5296C9.59852 17.4715 11.4466 16.0969 13.3167 14.1037C14.4441 12.9013 15.352 11.7151 16.0123 10.5778C16.429 9.8591 16.7572 9.14741 16.9826 8.46129C17.2544 7.64028 17.3913 6.83323 17.3913 6.05874C17.3933 5.23773 17.2504 4.43998 16.9705 3.68874V3.68874Z" fill="white"/>
</svg>
